SplineFontDB: 1.0
FontName: F16Hud
FullName: F16Hud
FamilyName: F16Hud
Weight: Medium
Copyright: Copyright 2005 Mark Rose (mkrose@users.sourceforge.net)
Comments: This font is free software; you can redistribute it and/or modify it under the terms of the GNU General Public License as published by the Free Software Foundation; either version 2 of the License, or (at your option) any later version.\n\nThis font is distributed in the hope that it will be useful, but WITHOUT ANY WARRANTY; without even the implied warranty of MERCHANTABILITY or FITNESS FOR A PARTICULAR PURPOSE.  See the GNU General Public License for more details.\n\nYou should have received a copy of the GNU General Public License along with this font; if not, write to the Free Software Foundation, Inc., 59 Temple Place - Suite 330, Boston, MA 02111-1307, USA.
Version: 001.000
ItalicAngle: 0
UnderlinePosition: -100
UnderlineWidth: 50
Ascent: 1000
Descent: 200
XUID: [1021 889 228425700 10216189]
FSType: 0
OS2WinAscent: 0
OS2WinAOffset: 1
OS2WinDescent: 0
OS2WinDOffset: 1
HheadAscent: 0
HheadAOffset: 1
HheadDescent: 0
HheadDOffset: 1
TtfTable: cvt  8
!$MDh!%7pD
EndTtf
Encoding: Custom
UnicodeInterp: none
DisplaySize: -96
AntiAlias: 1
FitToEm: 1
WinInfo: 48 8 7
BeginChars: 256 59
StartChar: degree
Encoding: 23 23 65535
Width: 800
Flags: MW
Fore
400 680 m 24
 444.123 680 480 644.123 480 600 c 24
 480 555.877 444.123 520 400 520 c 24
 355.877 520 320 555.877 320 600 c 28
 320 644.123 355.877 680 400 680 c 24
400 800 m 24
 289.691 800 200 710.309 200 600 c 24
 200 489.691 289.691 400 400 400 c 24
 510.309 400 600 489.691 600 600 c 24
 600 710.309 510.309 800 400 800 c 24
EndSplineSet
EndChar
StartChar: narrowperiod
Encoding: 30 30 0
Width: 300
VWidth: 1000
Flags: MW
Fore
75 0 m 13
 75 200 l 29
 225 200 l 21
 225 0 l 5
 75 0 l 13
EndSplineSet
EndChar
StartChar: narrowcomma
Encoding: 31 31 1
Width: 300
VWidth: 1000
Flags: HMW
Fore
90 200 m 29
 240 200 l 29
 240 0 l 29
 60 -130 l 29
 90 0 l 29
 90 200 l 29
EndSplineSet
EndChar
StartChar: quotedbl
Encoding: 34 34 1
Width: 800
Flags: MW
Fore
470 800 m 1
 620 800 l 1
 620 600 l 1
 545 525 l 1
 470 600 l 1
 470 800 l 1
180 800 m 1
 330 800 l 1
 330 600 l 1
 255 525 l 1
 180 600 l 1
 180 800 l 1
EndSplineSet
EndChar
StartChar: quotesingle
Encoding: 39 39 2
Width: 800
Flags: HMW
Fore
310 800 m 1
 460 800 l 1
 460 600 l 1
 385 525 l 1
 310 525 l 5
 385 600 l 1
 385 650 l 1
 310 650 l 1
 310 800 l 1
EndSplineSet
EndChar
StartChar: parenleft
Encoding: 40 40 65535
Width: 800
Flags: MW
Fore
562.055 800 m 21
 582.055 834.641 502.766 870.711 432.055 800 c 13
 432.055 800 282.055 566.608 282.055 400 c 28
 282.055 233.392 432.055 0 432.055 0 c 21
 527.514 -95.459 582.055 -34.6406 562.055 0 c 13
 562.055 0 412.055 233.392 412.055 400 c 28
 412.055 566.608 562.055 800 562.055 800 c 21
EndSplineSet
EndChar
StartChar: parenright
Encoding: 41 41 3
Width: 800
Flags: MW
Fore
262.055 800 m 21
 242.055 834.641 321.344 870.711 392.055 800 c 13
 392.055 800 542.055 566.608 542.055 400 c 28
 542.055 233.392 392.055 0 392.055 0 c 21
 296.596 -95.459 242.055 -34.6406 262.055 0 c 13
 262.055 0 412.055 233.392 412.055 400 c 28
 412.055 566.608 262.055 800 262.055 800 c 21
EndSplineSet
EndChar
StartChar: asterisk
Encoding: 42 42 1
Width: 800
VWidth: 1000
Flags: MW
Fore
350 650 m 25
 350 480 l 25
 200 564 l 25
 152 485 l 25
 300 400 l 25
 152 315 l 25
 200 236 l 25
 350 320 l 25
 350 150 l 25
 450 150 l 25
 450 320 l 25
 600 236 l 25
 648 315 l 29
 500 400 l 25
 648 485 l 25
 600 564 l 25
 450 480 l 25
 450 650 l 25
 350 650 l 25
EndSplineSet
EndChar
StartChar: plus
Encoding: 43 43 2
Width: 800
VWidth: 1000
Flags: MW
Fore
140 400 m 1
 335 400 l 1
 335 595 l 1
 465 595 l 1
 465 400 l 1
 660 400 l 1
 660 300 l 1
 465 300 l 1
 465 105 l 1
 335 105 l 5
 335 300 l 1
 140 300 l 1
 140 400 l 1
EndSplineSet
EndChar
StartChar: comma
Encoding: 44 44 0
Width: 800
VWidth: 1000
Flags: MW
Fore
325 30 m 13
 325 230 l 29
 475 230 l 21
 475 30 l 5
 360 -100 l 5
 295 -100 l 5
 325 30 l 13
EndSplineSet
EndChar
StartChar: hyphen
Encoding: 45 45 1
Width: 800
VWidth: 1000
Flags: MW
Fore
170 400 m 5
 630 400 l 5
 630 300 l 5
 170 300 l 5
 170 400 l 5
EndSplineSet
EndChar
StartChar: period
Encoding: 46 46 2
Width: 800
VWidth: 1000
Flags: MW
Fore
325 0 m 13
 325 200 l 29
 475 200 l 21
 475 0 l 5
 325 0 l 13
EndSplineSet
EndChar
StartChar: slash
Encoding: 47 47 3
Width: 800
Flags: MW
Fore
520 800 m 29
 690 800 l 29
 270 0 l 29
 110 0 l 29
 520 800 l 29
EndSplineSet
EndChar
StartChar: zero
Encoding: 48 48 1
Width: 800
VWidth: 1000
Flags: HMW
Fore
400 120 m 0
 530 120 580 200 580 400 c 4
 580 600 530 680 400 680 c 0
 270 680 220 600 220 400 c 0
 220 200 270 120 400 120 c 0
400 0 m 0
 140 0 90 200 90 400 c 0
 90 600 140 800 400 800 c 0
 660 800 710 600 710 400 c 0
 710 200 660 0 400 0 c 0
EndSplineSet
EndChar
StartChar: one
Encoding: 49 49 2
Width: 800
VWidth: 1000
Flags: MW
Back
Fore
220 0 m 25
 220 120 l 25
 340 120 l 25
 340 620 l 25
 230 620 l 25
 230 710 l 25
 340 800 l 25
 480 800 l 25
 480 120 l 25
 580 120 l 25
 580 0 l 29
 220 0 l 25
EndSplineSet
EndChar
StartChar: two
Encoding: 50 50 2
Width: 800
VWidth: 1000
Flags: MW
Fore
90 640 m 21
 130 709.282 247 798 397 798 c 0
 547 798 710 730 710 580 c 0
 710 430 651.719 391.719 610 350 c 1
 511.005 251.005 380 120 380 120 c 17
 380 120 578 120 710 120 c 9
 710 120 710 44 710 0 c 1
 590 0 90 0 90 0 c 1
 90 0 344.579 253.579 486 395 c 0
 599.137 508.137 580 541.404 580 570 c 0
 580 660 500 680 400 680 c 0
 300 680 242.139 638.302 210 600 c 9
 90 640 l 21
EndSplineSet
EndChar
StartChar: three
Encoding: 51 51 3
Width: 800
VWidth: 1000
Flags: MW
Back
Fore
399 0 m 24,0,0
90 680 m 25,0,0
 90 800 l 25,0,0
 710 800 l 17,0,0
 476 502 l 1,0,0
 605.288 488.411 710 415 710 265 c 0,0,0
 710 115 550 -1.83691e-14 400 0 c 0,0,0
 250 1.83691e-14 136.036 50.4323 98 132 c 9,0,0
 222 174 l 17,0,0
 244.331 126.111 320 120 400 120 c 0,0,0
 480 120 576 165 576 265 c 0,0,0
 576 365 485 410 405 410 c 4,0,0
 325 410 265 410 265 410 c 9,0,0
 476 680 l 25,0,0
 90 680 l 25,0,0
EndSplineSet
EndChar
StartChar: four
Encoding: 52 52 4
Width: 800
VWidth: 1000
Flags: MW
Back
Fore
480 280 m 25
 480 600 l 25
 230 280 l 29
 480 280 l 25
480 0 m 25
 480 180 l 25
 90 180 l 25
 90 310 l 25
 480 800 l 25
 610 800 l 25
 610 280 l 25
 710 280 l 25
 710 180 l 25
 610 180 l 25
 610 0 l 25
 480 0 l 25
EndSplineSet
EndChar
StartChar: five
Encoding: 53 53 3
Width: 800
VWidth: 1000
Flags: MW
Back
Fore
90 400 m 29
 90 800 l 29
 670 800 l 29
 670 680 l 29
 220 680 l 29
 220 520 l 29
 220 520 250 520 400 520 c 4
 550 520 710 420 710 270 c 4
 710 120 550 0 400 0 c 4
 250 0 86 93 86 93 c 29
 158 189 l 29
 158 189 300 120 400 120 c 4
 500 120 580 170 580 270 c 4
 580 370 500 400 400 400 c 4
 300 400 90 400 90 400 c 29
EndSplineSet
EndChar
StartChar: six
Encoding: 54 54 3
Width: 800
VWidth: 1000
Flags: MW
Back
Fore
230 260 m 4
 230 160 320 120 400 120 c 4
 480 120 570 160 570 260 c 4
 570 360 480 400 400 400 c 4
 320 400 230 360 230 260 c 4
90 260 m 4
 90 420 174.86 537.698 207 576 c 4
 303.418 690.906 302.67 689.965 395 800 c 13
 535 800 l 29
 535 800 369.449 605.999 304 528 c 5
 278 484 296 520 400 520 c 4
 522 520 710 434 710 280 c 4
 710 112 580 0 400 0 c 4
 220 0 90 100 90 260 c 4
EndSplineSet
EndChar
StartChar: seven
Encoding: 55 55 4
Width: 800
VWidth: 1000
Flags: MW
Back
Fore
90 680 m 25
 90 800 l 25
 710 800 l 25
 710 680 l 25
 250 0 l 25
 110 0 l 25
 570 680 l 29
 90 680 l 25
EndSplineSet
EndChar
StartChar: eight
Encoding: 56 56 5
Width: 800
VWidth: 1000
Flags: MW
Back
Fore
400 460 m 0
 480 460 540 500 540 580 c 0
 540 660 480 680 400 680 c 0
 320 680 260 650 260 570 c 0
 260 490 320 460 400 460 c 0
400 120 m 0
 480 120 540 150 540 230 c 0
 540 310 480 340 400 340 c 0
 320 340 260 310 260 230 c 0
 260 150 320 120 400 120 c 0
400 0 m 0
 200 0 90 120 90 220 c 0
 90 320 180 402 180 402 c 29
 180 402 87 480 87 580 c 0
 87 680 200 800 400 800 c 0
 600 800 710 680 710 580 c 0
 710 480 620 399 620 399 c 1
 620 399 710 320 710 220 c 0
 710 120 600 0 400 0 c 0
EndSplineSet
EndChar
StartChar: nine
Encoding: 57 57 6
Width: 800
VWidth: 1000
Flags: MW
Fore
570 540 m 0
 570 640 480 680 400 680 c 0
 320 680 230 640 230 540 c 0
 230 440 320 400 400 400 c 0
 480 400 570 440 570 540 c 0
710 540 m 0
 710 380 625.14 262.302 593 224 c 0
 496.582 109.094 497.33 110.034 405 0 c 9
 265 0 l 25
 265 0 430.552 194.001 496 272 c 1
 522 316 504 280 400 280 c 0
 278 280 90 366 90 520 c 4
 90 688 220 800 400 800 c 0
 580 800 710 700 710 540 c 0
EndSplineSet
EndChar
StartChar: colon
Encoding: 58 58 7
Width: 800
VWidth: 1000
Flags: MW
Fore
325 380 m 13
 325 580 l 29
 475 580 l 21
 475 380 l 5
 325 380 l 13
325 30 m 13
 325 230 l 29
 475 230 l 21
 475 30 l 5
 325 30 l 13
EndSplineSet
EndChar
StartChar: semicolon
Encoding: 59 59 8
Width: 800
VWidth: 1000
Flags: MW
Fore
325 380 m 9
 325 580 l 25
 475 580 l 17
 475 380 l 1
 325 380 l 9
325 30 m 13
 325 230 l 29
 475 230 l 21
 475 30 l 5
 360 -100 l 5
 295 -100 l 5
 325 30 l 13
EndSplineSet
EndChar
StartChar: less
Encoding: 60 60 9
Width: 800
Flags: MW
Fore
650 700 m 29
 550 800 l 29
 150 400 l 29
 550 0 l 29
 650 100 l 29
 350 400 l 29
 650 700 l 29
EndSplineSet
EndChar
StartChar: equal
Encoding: 61 61 10
Width: 800
Flags: MW
Fore
120 300 m 5
 680 300 l 5
 680 180 l 5
 120 180 l 5
 120 300 l 5
120 620 m 5
 680 620 l 5
 680 500 l 5
 120 500 l 5
 120 620 l 5
EndSplineSet
EndChar
StartChar: greater
Encoding: 62 62 11
Width: 800
Flags: MW
Fore
150 700 m 29
 250 800 l 29
 650 400 l 29
 250 0 l 29
 150 100 l 29
 450 400 l 29
 150 700 l 29
EndSplineSet
EndChar
StartChar: A
Encoding: 65 65 9
Width: 800
VWidth: 1000
Flags: MW
Back
Fore
220 390 m 13
 580 390 l 21
 580 470 l 5
 400 650 l 5
 220 470 l 5
 220 390 l 13
90 0 m 29
 90 490 l 29
 400 800 l 29
 710 490 l 29
 710 0 l 29
 580 0 l 29
 580 270 l 29
 220 270 l 29
 220 0 l 29
 90 0 l 29
EndSplineSet
EndChar
StartChar: B
Encoding: 66 66 10
Width: 800
VWidth: 1000
Flags: MW
Back
Fore
440 681 m 4
 395.777 681 340 681 320 681 c 5
 320 661 320 481 320 461 c 5
 340 461 360 461 440 461 c 4
 520 461 580 491 580 571 c 4
 580 651 520 681 440 681 c 4
440 340 m 4
 395.777 340 340 340 320 340 c 5
 320 320 320 140 320 120 c 5
 340 120 360 120 440 120 c 4
 520 120 580 150 580 230 c 4
 580 310 520 340 440 340 c 4
90 0 m 29
 90 120 l 29
 190 120 l 29
 190 680 l 29
 90 680 l 29
 90 800 l 29
 90 800 239.706 800 400 800 c 20
 550 800 710 720 710 570 c 4
 710 420 630 450 630 400 c 5
 628.865 350.013 710 380 710 230 c 4
 710 80 550 0 400 0 c 4
 250 0 90 0 90 0 c 29
EndSplineSet
EndChar
StartChar: C
Encoding: 67 67 10
Width: 800
VWidth: 1000
Flags: HMW
Back
Fore
90 400 m 4
 90 650 200 800 400 800 c 4
 600 800 650 660 650 660 c 13
 540 600 l 21
 540 600 540 680 400 680 c 4
 260 680 220 550 220 400 c 4
 220 250 260 120 400 120 c 4
 540 120 540 200 540 200 c 13
 650 140 l 21
 650 140 600 0 400 0 c 4
 200 0 90 150 90 400 c 4
EndSplineSet
EndChar
StartChar: D
Encoding: 68 68 11
Width: 800
VWidth: 1000
Flags: MW
Fore
320 681 m 9
 320 681 320 140 320 120 c 1
 340 120 320 120 440 120 c 0
 560 120 580 230 580 230 c 1
 580 570 l 0
 580 570 560 681 440 681 c 0
 320 681 340 681 320 681 c 9
90 0 m 25
 90 120 l 25
 190 120 l 25
 190 680 l 25
 90 680 l 25
 90 800 l 25
 90 800 239.706 800 400 800 c 16
 550 800 710 720 710 570 c 2
 710 230 l 6
 710 80 550 0 400 0 c 0
 250 0 90 0 90 0 c 25
EndSplineSet
EndChar
StartChar: E
Encoding: 69 69 12
Width: 800
Flags: MW
Fore
90 0 m 25
 90 800 l 29
 710 800 l 29
 710 680 l 25
 220 680 l 25
 220 460 l 25
 490 460 l 25
 490 340 l 25
 220 340 l 25
 220 120 l 25
 710 120 l 29
 710 0 l 25
 90 0 l 25
EndSplineSet
EndChar
StartChar: F
Encoding: 70 70 13
Width: 800
Flags: MW
Fore
90 0 m 29
 90 800 l 25
 710 800 l 25
 710 680 l 25
 220 680 l 25
 220 460 l 25
 490 460 l 25
 490 340 l 25
 220 340 l 25
 220 0 l 29
 90 0 l 29
EndSplineSet
EndChar
StartChar: G
Encoding: 71 71 14
Width: 800
VWidth: 1000
Flags: MW
Back
90 400 m 4
 90 650 200 800 400 800 c 4
 600 800 650 660 650 660 c 13
 540 600 l 21
 540 600 540 680 400 680 c 4
 260 680 220 550 220 400 c 4
 220 250 260 120 400 120 c 4
 540 120 540 200 540 200 c 5
 430 200 l 5
 430 320 l 5
 650 320 l 5
 650 140 l 5
 650 140 600 0 400 0 c 4
 200 0 90 150 90 400 c 4
EndSplineSet
Fore
654.084 666 m 1
 608.546 745.973 529.936 800 400 800 c 0
 150 800 90 600 90 400 c 0
 90 200 150 3.06152e-14 400 0 c 0
 616.466 -6.35783e-06 690.485 149.943 706.448 320 c 5
 430 320 l 1
 430 200 l 1
 544.277 200 l 1
 517.767 150.92 473.154 120 400 120 c 0
 250 120 220 250 220 400 c 0
 220 550 250 680 400 680 c 0
 474.143 680 518.967 648.239 545.343 598 c 1
 654.084 666 l 1
EndSplineSet
EndChar
StartChar: H
Encoding: 72 72 15
Width: 800
Flags: MW
Fore
90 0 m 13
 90 800 l 29
 220 800 l 21
 220 460 l 13
 580 460 l 29
 580 800 l 29
 710 800 l 29
 710 0 l 29
 580 0 l 29
 580 340 l 29
 220 340 l 21
 220 0 l 5
 90 0 l 13
EndSplineSet
EndChar
StartChar: I
Encoding: 73 73 16
Width: 800
Flags: HMW
Fore
220 0 m 9
 580 0 l 17
 580 120 l 1
 465 120 l 1
 465 680 l 9
 580 680 l 25
 580 800 l 25
 220 800 l 25
 220 680 l 25
 335 680 l 17
 335 120 l 1
 220 120 l 5
 220 0 l 9
EndSplineSet
EndChar
StartChar: J
Encoding: 74 74 17
Width: 800
VWidth: 1000
Flags: MW
Fore
640 400 m 0
 640 680 l 1
 710 680 l 1
 710 800 l 1
 200 800 l 9
 200 680 l 21
 510 680 l 1
 510 680 510 550 510 400 c 0
 510 250 525 120 365 120 c 0
 205 120 200 155 200 155 c 9
 90 110 l 17
 90 110 115 3.06152e-14 365 0 c 0
 615 -3.06152e-14 640 150 640 400 c 0
EndSplineSet
EndChar
StartChar: K
Encoding: 75 75 18
Width: 800
Flags: MW
Fore
90 0 m 25
 220 0 l 25
 220 310 l 25
 530 0 l 25
 710 0 l 25
 310 400 l 25
 710 800 l 25
 530 800 l 29
 220 490 l 25
 220 800 l 25
 90 800 l 25
 90 0 l 25
EndSplineSet
EndChar
StartChar: L
Encoding: 76 76 19
Width: 800
Flags: MW
Fore
90 0 m 25
 90 800 l 25
 220 800 l 17
 220 120 l 13
 700 120 l 25
 700 0 l 25
 90 0 l 25
EndSplineSet
EndChar
StartChar: M
Encoding: 77 77 20
Width: 800
Flags: MW
Fore
90 0 m 13
 90 800 l 29
 220 800 l 21
 400 520 l 13
 580 800 l 29
 710 800 l 29
 710 0 l 29
 580 0 l 29
 580 560 l 21
 390 280 l 5
 220 560 l 5
 220 0 l 5
 90 0 l 13
EndSplineSet
EndChar
StartChar: N
Encoding: 78 78 21
Width: 800
Flags: MW
Fore
90 0 m 9
 90 800 l 25
 220 800 l 17
 580 240 l 9
 580 800 l 25
 710 800 l 25
 710 0 l 25
 580 0 l 17
 220 560 l 5
 220 0 l 1
 90 0 l 9
EndSplineSet
EndChar
StartChar: O
Encoding: 79 79 22
Width: 800
VWidth: 1000
Flags: HMW
Fore
400 680 m 4
 250 680 220 550 220 400 c 4
 220 250 250 120 400 120 c 4
 550 120 580 250 580 400 c 4
 580 550 550 680 400 680 c 4
400 0 m 4
 150 3.06152e-14 90 200 90 400 c 4
 90 600 150 800 400 800 c 4
 650 800 710 600 710 400 c 4
 710 200 650 -3.06152e-14 400 0 c 4
EndSplineSet
EndChar
StartChar: P
Encoding: 80 80 23
Width: 800
VWidth: 1000
Flags: MW
Fore
440 681 m 4
 395.777 681 240 681 220 681 c 5
 220 661 220 481 220 461 c 5
 240 461 360 461 440 461 c 4
 520 461 580 491 580 571 c 4
 580 651 520 681 440 681 c 4
90 0 m 13
 90 800 l 21
 90 800 279.1 800 400 800 c 20
 550 800 710 720 710 570 c 4
 710 420 550 340 400 340 c 4
 250 340 370 340 220 340 c 5
 220 0 l 4
 90 0 l 13
EndSplineSet
EndChar
StartChar: Q
Encoding: 81 81 24
Width: 800
VWidth: 1000
Flags: MWO
Fore
400 680 m 0
 250 680 220 550 220 400 c 0
 220 250 250 120 400 120 c 0
 442.698 120 475.673 130.534 501 149.064 c 1
 511.822 156.982 426 198 426 198 c 5
 480 279 l 1
 480 279 559.327 234.683 561.854 243 c 1
 575.623 288.329 580 342.705 580 400 c 0
 580 550 550 680 400 680 c 0
400 0 m 0
 150 3.06152e-14 90 200 90 400 c 0
 90 600 150 800 400 800 c 0
 650 800 710 600 710 400 c 0
 710 306.954 697.014 213.907 657.95 141 c 1
 652.361 130.568 710 0 710 0 c 1
 580 0 l 1
 580 0 572.517 44.662 556.887 36 c 1
 515.599 13.1201 464.032 -6.35783e-07 400 0 c 0
EndSplineSet
EndChar
StartChar: R
Encoding: 82 82 25
Width: 800
VWidth: 1000
Flags: MWO
Fore
440 681 m 0
 395.777 681 240 681 220 681 c 1
 220 661 220 481 220 461 c 1
 240 461 360 461 440 461 c 0
 520 461 580 491 580 571 c 0
 580 651 520 681 440 681 c 0
90 0 m 9
 90 800 l 17
 90 800 279.1 800 400 800 c 16
 550 800 710 720 710 570 c 0
 710 420 550 340 400 340 c 0
 710 0 l 1
 530 0 l 5
 220 340 l 1
 220 0 l 0
 90 0 l 9
EndSplineSet
EndChar
StartChar: S
Encoding: 83 83 26
Width: 800
VWidth: 1000
Flags: MW
Fore
90 570 m 0
 90 720 250 800 400 800 c 0
 550 800 710 707 710 707 c 25
 645 610 l 29
 645 610 500 680 400 680 c 0
 300 680 220 650 220 570 c 0
 220 490 250 460 400 460 c 0
 600 460 710 380 710 230 c 0
 710 80 550 0 400 0 c 0
 250 0 90 93 90 93 c 25
 155 190 l 25
 155 190 300 120 400 120 c 0
 500 120 580 150 580 230 c 0
 580 310 550 340 400 340 c 0
 200 340 90 420 90 570 c 0
EndSplineSet
EndChar
StartChar: T
Encoding: 84 84 27
Width: 800
Flags: MW
Fore
335 0 m 29
 465 0 l 29
 465 680 l 29
 710 680 l 29
 710 800 l 29
 90 800 l 29
 90 680 l 29
 335 680 l 29
 335 0 l 29
EndSplineSet
EndChar
StartChar: U
Encoding: 85 85 28
Width: 800
VWidth: 1000
Flags: MW
Fore
220 400 m 21
 220 250 250 120 400 120 c 0
 550 120 580 250 580 400 c 9
 580 800 l 25
 710 800 l 25
 710 400 l 17
 710 200 650 -3.06152e-14 400 0 c 0
 150 3.06152e-14 90 200 90 400 c 9
 90 800 l 25
 220 800 l 25
 220 400 l 21
EndSplineSet
EndChar
StartChar: V
Encoding: 86 86 29
Width: 800
VWidth: 1000
Flags: MW
Fore
580 800 m 25
 710 800 l 29
 710 310 l 25
 400 0 l 25
 90 310 l 25
 90 800 l 25
 220 800 l 25
 220 330 l 17
 400 150 l 1
 580 330 l 9
 580 800 l 25
EndSplineSet
EndChar
StartChar: W
Encoding: 87 87 30
Width: 800
Flags: MW
Fore
90 800 m 9
 90 0 l 25
 220 0 l 17
 400 280 l 9
 580 0 l 25
 710 0 l 25
 710 800 l 25
 580 800 l 25
 580 240 l 17
 390 520 l 1
 220 240 l 1
 220 800 l 1
 90 800 l 9
EndSplineSet
EndChar
StartChar: X
Encoding: 88 88 31
Width: 800
Flags: MW
Fore
90 800 m 25
 250 800 l 29
 400 550 l 25
 550 800 l 25
 710 800 l 25
 470 400 l 25
 710 0 l 25
 550 0 l 25
 400 250 l 25
 250 0 l 25
 90 0 l 25
 330 400 l 25
 90 800 l 25
EndSplineSet
EndChar
StartChar: Y
Encoding: 89 89 32
Width: 800
Flags: MW
Fore
335 0 m 25
 465 0 l 25
 465 275 l 29
 710 520 l 25
 710 800 l 25
 580 800 l 25
 580 580 l 25
 400 400 l 25
 220 580 l 25
 220 800 l 25
 90 800 l 25
 90 520 l 25
 335 275 l 25
 335 0 l 25
EndSplineSet
EndChar
StartChar: Z
Encoding: 90 90 33
Width: 800
Flags: MW
Fore
90 800 m 25
 90 680 l 25
 480 680 l 29
 90 0 l 25
 710 0 l 25
 710 120 l 25
 320 120 l 25
 710 800 l 25
 90 800 l 25
EndSplineSet
EndChar
StartChar: bracketleft
Encoding: 91 91 65535
Width: 800
Flags: MW
Fore
530 800 m 25
 530 680 l 25
 390 680 l 25
 390 120 l 25
 530 120 l 25
 530 0 l 25
 270 0 l 25
 270 800 l 25
 530 800 l 25
EndSplineSet
EndChar
StartChar: backslash
Encoding: 92 92 34
Width: 800
Flags: MW
Fore
280 800 m 29
 110 800 l 29
 530 0 l 29
 690 0 l 29
 280 800 l 29
EndSplineSet
EndChar
StartChar: bracketright
Encoding: 93 93 65535
Width: 800
Flags: MW
Fore
270 800 m 29
 270 680 l 29
 410 680 l 29
 410 120 l 29
 270 120 l 29
 270 0 l 29
 530 0 l 29
 530 800 l 29
 270 800 l 29
EndSplineSet
EndChar
StartChar: asciicircum
Encoding: 94 94 35
Width: 800
VWidth: 1000
Flags: MW
Fore
400 40 m 29
 90 350 l 29
 710 350 l 29
 400 40 l 29
400 760 m 29
 90 450 l 29
 710 450 l 29
 400 760 l 29
EndSplineSet
EndChar
